<svg width="30" height="29" viewBox="0 0 30 29" fill="none" xmlns="http://www.w3.org/2000/svg">
<path d="M0.860793 12.4325L12.5168 16.9024L17.1416 28.1681C17.3477 28.6719 17.8508 29 18.4085 29C18.4145 29 18.4145 29 18.4206 29C18.9843 28.9941 19.4874 28.6544 19.6813 28.1447L29.9129 1.78193C30.1008 1.29568 29.9796 0.75085 29.5977 0.38763C29.2159 0.0244097 28.6522 -0.0986165 28.1551 0.0829936L0.878977 9.97196C0.357699 10.1594 0.00613986 10.6457 7.84927e-05 11.1905C-0.00598287 11.7353 0.339515 12.2274 0.860793 12.4325ZM26.3064 3.56874L18.3721 24.0145L15.1656 16.2053L21.2512 10.3235C21.7846 9.80792 21.7846 8.97603 21.2512 8.46049C20.7178 7.94495 19.8571 7.94495 19.3237 8.46049L13.232 14.3365L5.15224 11.2374L26.3064 3.56874Z" fill="#CACACA"/>
</svg>
